<mxfile host="app.diagrams.net" modified="2024-02-26T22:41:16.090Z" agent="Mozilla/5.0 (Windows NT 10.0; Win64; x64) AppleWebKit/537.36 (KHTML, like Gecko) Chrome/121.0.0.0 Safari/537.36 OPR/107.0.0.0" etag="kmQT39B8NZmgPTnUG-hv" version="23.1.7" type="device">
  <diagram name="Page-1" id="P4m7N2BH5QlYH6LV-Iv3">
    <mxGraphModel dx="2487" dy="890" grid="1" gridSize="10" guides="1" tooltips="1" connect="1" arrows="1" fold="1" page="1" pageScale="1" pageWidth="827" pageHeight="1169" math="0" shadow="0">
      <root>
        <mxCell id="0" />
        <mxCell id="1" parent="0" />
        <mxCell id="KTKxGtAQiXLNz0Gxm8kv-1" value="Produit" style="swimlane;fontStyle=0;childLayout=stackLayout;horizontal=1;startSize=30;horizontalStack=0;resizeParent=1;resizeParentMax=0;resizeLast=0;collapsible=1;marginBottom=0;whiteSpace=wrap;html=1;sketch=1;curveFitting=1;jiggle=2;fontFamily=Comic Sans MS;fontSize=14;" vertex="1" parent="1">
          <mxGeometry x="10" y="420" width="120" height="180" as="geometry" />
        </mxCell>
        <mxCell id="KTKxGtAQiXLNz0Gxm8kv-2" value="id" style="text;strokeColor=none;fillColor=none;align=left;verticalAlign=middle;spacingLeft=4;spacingRight=4;overflow=hidden;points=[[0,0.5],[1,0.5]];portConstraint=eastwest;rotatable=0;whiteSpace=wrap;html=1;sketch=1;curveFitting=1;jiggle=2;fontFamily=Comic Sans MS;fontSize=14;" vertex="1" parent="KTKxGtAQiXLNz0Gxm8kv-1">
          <mxGeometry y="30" width="120" height="30" as="geometry" />
        </mxCell>
        <mxCell id="KTKxGtAQiXLNz0Gxm8kv-3" value="nom" style="text;strokeColor=none;fillColor=none;align=left;verticalAlign=middle;spacingLeft=4;spacingRight=4;overflow=hidden;points=[[0,0.5],[1,0.5]];portConstraint=eastwest;rotatable=0;whiteSpace=wrap;html=1;sketch=1;curveFitting=1;jiggle=2;fontFamily=Comic Sans MS;fontSize=14;" vertex="1" parent="KTKxGtAQiXLNz0Gxm8kv-1">
          <mxGeometry y="60" width="120" height="30" as="geometry" />
        </mxCell>
        <mxCell id="KTKxGtAQiXLNz0Gxm8kv-39" value="code_bar" style="text;strokeColor=none;fillColor=none;align=left;verticalAlign=middle;spacingLeft=4;spacingRight=4;overflow=hidden;points=[[0,0.5],[1,0.5]];portConstraint=eastwest;rotatable=0;whiteSpace=wrap;html=1;sketch=1;curveFitting=1;jiggle=2;fontFamily=Comic Sans MS;fontSize=14;" vertex="1" parent="KTKxGtAQiXLNz0Gxm8kv-1">
          <mxGeometry y="90" width="120" height="30" as="geometry" />
        </mxCell>
        <mxCell id="KTKxGtAQiXLNz0Gxm8kv-42" value="image" style="text;strokeColor=none;fillColor=none;align=left;verticalAlign=middle;spacingLeft=4;spacingRight=4;overflow=hidden;points=[[0,0.5],[1,0.5]];portConstraint=eastwest;rotatable=0;whiteSpace=wrap;html=1;sketch=1;curveFitting=1;jiggle=2;fontFamily=Comic Sans MS;fontSize=14;" vertex="1" parent="KTKxGtAQiXLNz0Gxm8kv-1">
          <mxGeometry y="120" width="120" height="30" as="geometry" />
        </mxCell>
        <mxCell id="KTKxGtAQiXLNz0Gxm8kv-38" value="categorie_id" style="text;strokeColor=none;fillColor=none;align=left;verticalAlign=middle;spacingLeft=4;spacingRight=4;overflow=hidden;points=[[0,0.5],[1,0.5]];portConstraint=eastwest;rotatable=0;whiteSpace=wrap;html=1;sketch=1;curveFitting=1;jiggle=2;fontFamily=Comic Sans MS;fontSize=14;" vertex="1" parent="KTKxGtAQiXLNz0Gxm8kv-1">
          <mxGeometry y="150" width="120" height="30" as="geometry" />
        </mxCell>
        <mxCell id="KTKxGtAQiXLNz0Gxm8kv-5" value="Category" style="swimlane;fontStyle=0;childLayout=stackLayout;horizontal=1;startSize=30;horizontalStack=0;resizeParent=1;resizeParentMax=0;resizeLast=0;collapsible=1;marginBottom=0;whiteSpace=wrap;html=1;sketch=1;curveFitting=1;jiggle=2;fontFamily=Comic Sans MS;fontSize=14;" vertex="1" parent="1">
          <mxGeometry x="-200" y="440" width="120" height="150" as="geometry" />
        </mxCell>
        <mxCell id="KTKxGtAQiXLNz0Gxm8kv-6" value="id" style="text;strokeColor=none;fillColor=none;align=left;verticalAlign=middle;spacingLeft=4;spacingRight=4;overflow=hidden;points=[[0,0.5],[1,0.5]];portConstraint=eastwest;rotatable=0;whiteSpace=wrap;html=1;sketch=1;curveFitting=1;jiggle=2;fontFamily=Comic Sans MS;fontSize=14;" vertex="1" parent="KTKxGtAQiXLNz0Gxm8kv-5">
          <mxGeometry y="30" width="120" height="30" as="geometry" />
        </mxCell>
        <mxCell id="KTKxGtAQiXLNz0Gxm8kv-7" value="nom" style="text;strokeColor=none;fillColor=none;align=left;verticalAlign=middle;spacingLeft=4;spacingRight=4;overflow=hidden;points=[[0,0.5],[1,0.5]];portConstraint=eastwest;rotatable=0;whiteSpace=wrap;html=1;sketch=1;curveFitting=1;jiggle=2;fontFamily=Comic Sans MS;fontSize=14;" vertex="1" parent="KTKxGtAQiXLNz0Gxm8kv-5">
          <mxGeometry y="60" width="120" height="30" as="geometry" />
        </mxCell>
        <mxCell id="KTKxGtAQiXLNz0Gxm8kv-8" value="description" style="text;strokeColor=none;fillColor=none;align=left;verticalAlign=middle;spacingLeft=4;spacingRight=4;overflow=hidden;points=[[0,0.5],[1,0.5]];portConstraint=eastwest;rotatable=0;whiteSpace=wrap;html=1;sketch=1;curveFitting=1;jiggle=2;fontFamily=Comic Sans MS;fontSize=14;" vertex="1" parent="KTKxGtAQiXLNz0Gxm8kv-5">
          <mxGeometry y="90" width="120" height="30" as="geometry" />
        </mxCell>
        <mxCell id="KTKxGtAQiXLNz0Gxm8kv-37" value="image" style="text;strokeColor=none;fillColor=none;align=left;verticalAlign=middle;spacingLeft=4;spacingRight=4;overflow=hidden;points=[[0,0.5],[1,0.5]];portConstraint=eastwest;rotatable=0;whiteSpace=wrap;html=1;sketch=1;curveFitting=1;jiggle=2;fontFamily=Comic Sans MS;fontSize=14;" vertex="1" parent="KTKxGtAQiXLNz0Gxm8kv-5">
          <mxGeometry y="120" width="120" height="30" as="geometry" />
        </mxCell>
        <mxCell id="KTKxGtAQiXLNz0Gxm8kv-13" value="Commande" style="swimlane;fontStyle=0;childLayout=stackLayout;horizontal=1;startSize=30;horizontalStack=0;resizeParent=1;resizeParentMax=0;resizeLast=0;collapsible=1;marginBottom=0;whiteSpace=wrap;html=1;sketch=1;curveFitting=1;jiggle=2;fontFamily=Comic Sans MS;fontSize=14;" vertex="1" parent="1">
          <mxGeometry x="614" y="500" width="120" height="120" as="geometry" />
        </mxCell>
        <mxCell id="KTKxGtAQiXLNz0Gxm8kv-14" value="id" style="text;strokeColor=none;fillColor=none;align=left;verticalAlign=middle;spacingLeft=4;spacingRight=4;overflow=hidden;points=[[0,0.5],[1,0.5]];portConstraint=eastwest;rotatable=0;whiteSpace=wrap;html=1;sketch=1;curveFitting=1;jiggle=2;fontFamily=Comic Sans MS;fontSize=14;" vertex="1" parent="KTKxGtAQiXLNz0Gxm8kv-13">
          <mxGeometry y="30" width="120" height="30" as="geometry" />
        </mxCell>
        <mxCell id="KTKxGtAQiXLNz0Gxm8kv-15" value="client" style="text;strokeColor=none;fillColor=none;align=left;verticalAlign=middle;spacingLeft=4;spacingRight=4;overflow=hidden;points=[[0,0.5],[1,0.5]];portConstraint=eastwest;rotatable=0;whiteSpace=wrap;html=1;sketch=1;curveFitting=1;jiggle=2;fontFamily=Comic Sans MS;fontSize=14;" vertex="1" parent="KTKxGtAQiXLNz0Gxm8kv-13">
          <mxGeometry y="60" width="120" height="30" as="geometry" />
        </mxCell>
        <mxCell id="KTKxGtAQiXLNz0Gxm8kv-86" value="date" style="text;strokeColor=none;fillColor=none;align=left;verticalAlign=middle;spacingLeft=4;spacingRight=4;overflow=hidden;points=[[0,0.5],[1,0.5]];portConstraint=eastwest;rotatable=0;whiteSpace=wrap;html=1;sketch=1;curveFitting=1;jiggle=2;fontFamily=Comic Sans MS;fontSize=14;" vertex="1" parent="KTKxGtAQiXLNz0Gxm8kv-13">
          <mxGeometry y="90" width="120" height="30" as="geometry" />
        </mxCell>
        <mxCell id="KTKxGtAQiXLNz0Gxm8kv-21" value="Livraison" style="swimlane;fontStyle=0;childLayout=stackLayout;horizontal=1;startSize=30;horizontalStack=0;resizeParent=1;resizeParentMax=0;resizeLast=0;collapsible=1;marginBottom=0;whiteSpace=wrap;html=1;sketch=1;curveFitting=1;jiggle=2;fontFamily=Comic Sans MS;fontSize=14;" vertex="1" parent="1">
          <mxGeometry x="420" y="640" width="120" height="240" as="geometry" />
        </mxCell>
        <mxCell id="KTKxGtAQiXLNz0Gxm8kv-22" value="id" style="text;strokeColor=none;fillColor=none;align=left;verticalAlign=middle;spacingLeft=4;spacingRight=4;overflow=hidden;points=[[0,0.5],[1,0.5]];portConstraint=eastwest;rotatable=0;whiteSpace=wrap;html=1;sketch=1;curveFitting=1;jiggle=2;fontFamily=Comic Sans MS;fontSize=14;" vertex="1" parent="KTKxGtAQiXLNz0Gxm8kv-21">
          <mxGeometry y="30" width="120" height="30" as="geometry" />
        </mxCell>
        <mxCell id="KTKxGtAQiXLNz0Gxm8kv-23" value="commande_id" style="text;strokeColor=none;fillColor=none;align=left;verticalAlign=middle;spacingLeft=4;spacingRight=4;overflow=hidden;points=[[0,0.5],[1,0.5]];portConstraint=eastwest;rotatable=0;whiteSpace=wrap;html=1;sketch=1;curveFitting=1;jiggle=2;fontFamily=Comic Sans MS;fontSize=14;" vertex="1" parent="KTKxGtAQiXLNz0Gxm8kv-21">
          <mxGeometry y="60" width="120" height="30" as="geometry" />
        </mxCell>
        <mxCell id="KTKxGtAQiXLNz0Gxm8kv-24" value="livreur_id" style="text;strokeColor=none;fillColor=none;align=left;verticalAlign=middle;spacingLeft=4;spacingRight=4;overflow=hidden;points=[[0,0.5],[1,0.5]];portConstraint=eastwest;rotatable=0;whiteSpace=wrap;html=1;sketch=1;curveFitting=1;jiggle=2;fontFamily=Comic Sans MS;fontSize=14;" vertex="1" parent="KTKxGtAQiXLNz0Gxm8kv-21">
          <mxGeometry y="90" width="120" height="30" as="geometry" />
        </mxCell>
        <mxCell id="KTKxGtAQiXLNz0Gxm8kv-65" value="frais" style="text;strokeColor=none;fillColor=none;align=left;verticalAlign=middle;spacingLeft=4;spacingRight=4;overflow=hidden;points=[[0,0.5],[1,0.5]];portConstraint=eastwest;rotatable=0;whiteSpace=wrap;html=1;sketch=1;curveFitting=1;jiggle=2;fontFamily=Comic Sans MS;fontSize=14;" vertex="1" parent="KTKxGtAQiXLNz0Gxm8kv-21">
          <mxGeometry y="120" width="120" height="30" as="geometry" />
        </mxCell>
        <mxCell id="KTKxGtAQiXLNz0Gxm8kv-66" value="date_de_livraison" style="text;strokeColor=none;fillColor=none;align=left;verticalAlign=middle;spacingLeft=4;spacingRight=4;overflow=hidden;points=[[0,0.5],[1,0.5]];portConstraint=eastwest;rotatable=0;whiteSpace=wrap;html=1;sketch=1;curveFitting=1;jiggle=2;fontFamily=Comic Sans MS;fontSize=14;" vertex="1" parent="KTKxGtAQiXLNz0Gxm8kv-21">
          <mxGeometry y="150" width="120" height="30" as="geometry" />
        </mxCell>
        <mxCell id="KTKxGtAQiXLNz0Gxm8kv-88" value="addresse" style="text;strokeColor=none;fillColor=none;align=left;verticalAlign=middle;spacingLeft=4;spacingRight=4;overflow=hidden;points=[[0,0.5],[1,0.5]];portConstraint=eastwest;rotatable=0;whiteSpace=wrap;html=1;sketch=1;curveFitting=1;jiggle=2;fontFamily=Comic Sans MS;fontSize=14;" vertex="1" parent="KTKxGtAQiXLNz0Gxm8kv-21">
          <mxGeometry y="180" width="120" height="30" as="geometry" />
        </mxCell>
        <mxCell id="KTKxGtAQiXLNz0Gxm8kv-89" value="contact_client" style="text;strokeColor=none;fillColor=none;align=left;verticalAlign=middle;spacingLeft=4;spacingRight=4;overflow=hidden;points=[[0,0.5],[1,0.5]];portConstraint=eastwest;rotatable=0;whiteSpace=wrap;html=1;sketch=1;curveFitting=1;jiggle=2;fontFamily=Comic Sans MS;fontSize=14;" vertex="1" parent="KTKxGtAQiXLNz0Gxm8kv-21">
          <mxGeometry y="210" width="120" height="30" as="geometry" />
        </mxCell>
        <mxCell id="KTKxGtAQiXLNz0Gxm8kv-33" value="Pharmacie" style="swimlane;fontStyle=0;childLayout=stackLayout;horizontal=1;startSize=30;horizontalStack=0;resizeParent=1;resizeParentMax=0;resizeLast=0;collapsible=1;marginBottom=0;whiteSpace=wrap;html=1;sketch=1;curveFitting=1;jiggle=2;fontFamily=Comic Sans MS;fontSize=14;" vertex="1" parent="1">
          <mxGeometry x="-153" y="170" width="120" height="210" as="geometry" />
        </mxCell>
        <mxCell id="KTKxGtAQiXLNz0Gxm8kv-34" value="id" style="text;strokeColor=none;fillColor=none;align=left;verticalAlign=middle;spacingLeft=4;spacingRight=4;overflow=hidden;points=[[0,0.5],[1,0.5]];portConstraint=eastwest;rotatable=0;whiteSpace=wrap;html=1;sketch=1;curveFitting=1;jiggle=2;fontFamily=Comic Sans MS;fontSize=14;" vertex="1" parent="KTKxGtAQiXLNz0Gxm8kv-33">
          <mxGeometry y="30" width="120" height="30" as="geometry" />
        </mxCell>
        <mxCell id="KTKxGtAQiXLNz0Gxm8kv-35" value="nom" style="text;strokeColor=none;fillColor=none;align=left;verticalAlign=middle;spacingLeft=4;spacingRight=4;overflow=hidden;points=[[0,0.5],[1,0.5]];portConstraint=eastwest;rotatable=0;whiteSpace=wrap;html=1;sketch=1;curveFitting=1;jiggle=2;fontFamily=Comic Sans MS;fontSize=14;" vertex="1" parent="KTKxGtAQiXLNz0Gxm8kv-33">
          <mxGeometry y="60" width="120" height="30" as="geometry" />
        </mxCell>
        <mxCell id="KTKxGtAQiXLNz0Gxm8kv-36" value="adresse" style="text;strokeColor=none;fillColor=none;align=left;verticalAlign=middle;spacingLeft=4;spacingRight=4;overflow=hidden;points=[[0,0.5],[1,0.5]];portConstraint=eastwest;rotatable=0;whiteSpace=wrap;html=1;sketch=1;curveFitting=1;jiggle=2;fontFamily=Comic Sans MS;fontSize=14;" vertex="1" parent="KTKxGtAQiXLNz0Gxm8kv-33">
          <mxGeometry y="90" width="120" height="30" as="geometry" />
        </mxCell>
        <mxCell id="KTKxGtAQiXLNz0Gxm8kv-43" value="tel" style="text;strokeColor=none;fillColor=none;align=left;verticalAlign=middle;spacingLeft=4;spacingRight=4;overflow=hidden;points=[[0,0.5],[1,0.5]];portConstraint=eastwest;rotatable=0;whiteSpace=wrap;html=1;sketch=1;curveFitting=1;jiggle=2;fontFamily=Comic Sans MS;fontSize=14;" vertex="1" parent="KTKxGtAQiXLNz0Gxm8kv-33">
          <mxGeometry y="120" width="120" height="30" as="geometry" />
        </mxCell>
        <mxCell id="KTKxGtAQiXLNz0Gxm8kv-44" value="email" style="text;strokeColor=none;fillColor=none;align=left;verticalAlign=middle;spacingLeft=4;spacingRight=4;overflow=hidden;points=[[0,0.5],[1,0.5]];portConstraint=eastwest;rotatable=0;whiteSpace=wrap;html=1;sketch=1;curveFitting=1;jiggle=2;fontFamily=Comic Sans MS;fontSize=14;" vertex="1" parent="KTKxGtAQiXLNz0Gxm8kv-33">
          <mxGeometry y="150" width="120" height="30" as="geometry" />
        </mxCell>
        <mxCell id="KTKxGtAQiXLNz0Gxm8kv-47" value="position_gps" style="text;strokeColor=none;fillColor=none;align=left;verticalAlign=middle;spacingLeft=4;spacingRight=4;overflow=hidden;points=[[0,0.5],[1,0.5]];portConstraint=eastwest;rotatable=0;whiteSpace=wrap;html=1;sketch=1;curveFitting=1;jiggle=2;fontFamily=Comic Sans MS;fontSize=14;" vertex="1" parent="KTKxGtAQiXLNz0Gxm8kv-33">
          <mxGeometry y="180" width="120" height="30" as="geometry" />
        </mxCell>
        <mxCell id="KTKxGtAQiXLNz0Gxm8kv-48" value="Utilisateur" style="swimlane;fontStyle=0;childLayout=stackLayout;horizontal=1;startSize=30;horizontalStack=0;resizeParent=1;resizeParentMax=0;resizeLast=0;collapsible=1;marginBottom=0;whiteSpace=wrap;html=1;sketch=1;curveFitting=1;jiggle=2;fontFamily=Comic Sans MS;fontSize=14;" vertex="1" parent="1">
          <mxGeometry x="240" y="70" width="120" height="330" as="geometry" />
        </mxCell>
        <mxCell id="KTKxGtAQiXLNz0Gxm8kv-49" value="id" style="text;strokeColor=none;fillColor=none;align=left;verticalAlign=middle;spacingLeft=4;spacingRight=4;overflow=hidden;points=[[0,0.5],[1,0.5]];portConstraint=eastwest;rotatable=0;whiteSpace=wrap;html=1;sketch=1;curveFitting=1;jiggle=2;fontFamily=Comic Sans MS;fontSize=14;" vertex="1" parent="KTKxGtAQiXLNz0Gxm8kv-48">
          <mxGeometry y="30" width="120" height="30" as="geometry" />
        </mxCell>
        <mxCell id="KTKxGtAQiXLNz0Gxm8kv-54" value="nom" style="text;strokeColor=none;fillColor=none;align=left;verticalAlign=middle;spacingLeft=4;spacingRight=4;overflow=hidden;points=[[0,0.5],[1,0.5]];portConstraint=eastwest;rotatable=0;whiteSpace=wrap;html=1;sketch=1;curveFitting=1;jiggle=2;fontFamily=Comic Sans MS;fontSize=14;" vertex="1" parent="KTKxGtAQiXLNz0Gxm8kv-48">
          <mxGeometry y="60" width="120" height="30" as="geometry" />
        </mxCell>
        <mxCell id="KTKxGtAQiXLNz0Gxm8kv-63" value="tel" style="text;strokeColor=none;fillColor=none;align=left;verticalAlign=middle;spacingLeft=4;spacingRight=4;overflow=hidden;points=[[0,0.5],[1,0.5]];portConstraint=eastwest;rotatable=0;whiteSpace=wrap;html=1;sketch=1;curveFitting=1;jiggle=2;fontFamily=Comic Sans MS;fontSize=14;" vertex="1" parent="KTKxGtAQiXLNz0Gxm8kv-48">
          <mxGeometry y="90" width="120" height="30" as="geometry" />
        </mxCell>
        <mxCell id="KTKxGtAQiXLNz0Gxm8kv-52" value="email" style="text;strokeColor=none;fillColor=none;align=left;verticalAlign=middle;spacingLeft=4;spacingRight=4;overflow=hidden;points=[[0,0.5],[1,0.5]];portConstraint=eastwest;rotatable=0;whiteSpace=wrap;html=1;sketch=1;curveFitting=1;jiggle=2;fontFamily=Comic Sans MS;fontSize=14;" vertex="1" parent="KTKxGtAQiXLNz0Gxm8kv-48">
          <mxGeometry y="120" width="120" height="30" as="geometry" />
        </mxCell>
        <mxCell id="KTKxGtAQiXLNz0Gxm8kv-50" value="adresse" style="text;strokeColor=none;fillColor=none;align=left;verticalAlign=middle;spacingLeft=4;spacingRight=4;overflow=hidden;points=[[0,0.5],[1,0.5]];portConstraint=eastwest;rotatable=0;whiteSpace=wrap;html=1;sketch=1;curveFitting=1;jiggle=2;fontFamily=Comic Sans MS;fontSize=14;" vertex="1" parent="KTKxGtAQiXLNz0Gxm8kv-48">
          <mxGeometry y="150" width="120" height="30" as="geometry" />
        </mxCell>
        <mxCell id="KTKxGtAQiXLNz0Gxm8kv-64" value="login" style="text;strokeColor=none;fillColor=none;align=left;verticalAlign=middle;spacingLeft=4;spacingRight=4;overflow=hidden;points=[[0,0.5],[1,0.5]];portConstraint=eastwest;rotatable=0;whiteSpace=wrap;html=1;sketch=1;curveFitting=1;jiggle=2;fontFamily=Comic Sans MS;fontSize=14;" vertex="1" parent="KTKxGtAQiXLNz0Gxm8kv-48">
          <mxGeometry y="180" width="120" height="30" as="geometry" />
        </mxCell>
        <mxCell id="KTKxGtAQiXLNz0Gxm8kv-51" value="mot_de_passe" style="text;strokeColor=none;fillColor=none;align=left;verticalAlign=middle;spacingLeft=4;spacingRight=4;overflow=hidden;points=[[0,0.5],[1,0.5]];portConstraint=eastwest;rotatable=0;whiteSpace=wrap;html=1;sketch=1;curveFitting=1;jiggle=2;fontFamily=Comic Sans MS;fontSize=14;" vertex="1" parent="KTKxGtAQiXLNz0Gxm8kv-48">
          <mxGeometry y="210" width="120" height="30" as="geometry" />
        </mxCell>
        <mxCell id="KTKxGtAQiXLNz0Gxm8kv-53" value="role" style="text;strokeColor=none;fillColor=none;align=left;verticalAlign=middle;spacingLeft=4;spacingRight=4;overflow=hidden;points=[[0,0.5],[1,0.5]];portConstraint=eastwest;rotatable=0;whiteSpace=wrap;html=1;sketch=1;curveFitting=1;jiggle=2;fontFamily=Comic Sans MS;fontSize=14;" vertex="1" parent="KTKxGtAQiXLNz0Gxm8kv-48">
          <mxGeometry y="240" width="120" height="30" as="geometry" />
        </mxCell>
        <mxCell id="KTKxGtAQiXLNz0Gxm8kv-71" value="pharmacie" style="text;strokeColor=none;fillColor=none;align=left;verticalAlign=middle;spacingLeft=4;spacingRight=4;overflow=hidden;points=[[0,0.5],[1,0.5]];portConstraint=eastwest;rotatable=0;whiteSpace=wrap;html=1;sketch=1;curveFitting=1;jiggle=2;fontFamily=Comic Sans MS;fontSize=14;" vertex="1" parent="KTKxGtAQiXLNz0Gxm8kv-48">
          <mxGeometry y="270" width="120" height="30" as="geometry" />
        </mxCell>
        <mxCell id="KTKxGtAQiXLNz0Gxm8kv-87" value="frais_livraison_km" style="text;strokeColor=none;fillColor=none;align=left;verticalAlign=middle;spacingLeft=4;spacingRight=4;overflow=hidden;points=[[0,0.5],[1,0.5]];portConstraint=eastwest;rotatable=0;whiteSpace=wrap;html=1;sketch=1;curveFitting=1;jiggle=2;fontFamily=Comic Sans MS;fontSize=14;" vertex="1" parent="KTKxGtAQiXLNz0Gxm8kv-48">
          <mxGeometry y="300" width="120" height="30" as="geometry" />
        </mxCell>
        <mxCell id="KTKxGtAQiXLNz0Gxm8kv-55" value="Admin, Livreur, Pharmacien, Client" style="rounded=0;whiteSpace=wrap;html=1;sketch=1;curveFitting=1;jiggle=2;fontFamily=Comic Sans MS;fontSize=14;" vertex="1" parent="1">
          <mxGeometry x="420" y="305" width="140" height="40" as="geometry" />
        </mxCell>
        <mxCell id="KTKxGtAQiXLNz0Gxm8kv-57" value="PharmacieProduit" style="swimlane;fontStyle=0;childLayout=stackLayout;horizontal=1;startSize=30;horizontalStack=0;resizeParent=1;resizeParentMax=0;resizeLast=0;collapsible=1;marginBottom=0;whiteSpace=wrap;html=1;sketch=1;curveFitting=1;jiggle=2;fontFamily=Comic Sans MS;fontSize=14;" vertex="1" parent="1">
          <mxGeometry x="210" y="420" width="120" height="180" as="geometry" />
        </mxCell>
        <mxCell id="KTKxGtAQiXLNz0Gxm8kv-58" value="id" style="text;strokeColor=none;fillColor=none;align=left;verticalAlign=middle;spacingLeft=4;spacingRight=4;overflow=hidden;points=[[0,0.5],[1,0.5]];portConstraint=eastwest;rotatable=0;whiteSpace=wrap;html=1;sketch=1;curveFitting=1;jiggle=2;fontFamily=Comic Sans MS;fontSize=14;" vertex="1" parent="KTKxGtAQiXLNz0Gxm8kv-57">
          <mxGeometry y="30" width="120" height="30" as="geometry" />
        </mxCell>
        <mxCell id="KTKxGtAQiXLNz0Gxm8kv-59" value="pharmacie_id" style="text;strokeColor=none;fillColor=none;align=left;verticalAlign=middle;spacingLeft=4;spacingRight=4;overflow=hidden;points=[[0,0.5],[1,0.5]];portConstraint=eastwest;rotatable=0;whiteSpace=wrap;html=1;sketch=1;curveFitting=1;jiggle=2;fontFamily=Comic Sans MS;fontSize=14;" vertex="1" parent="KTKxGtAQiXLNz0Gxm8kv-57">
          <mxGeometry y="60" width="120" height="30" as="geometry" />
        </mxCell>
        <mxCell id="KTKxGtAQiXLNz0Gxm8kv-60" value="produit_id" style="text;strokeColor=none;fillColor=none;align=left;verticalAlign=middle;spacingLeft=4;spacingRight=4;overflow=hidden;points=[[0,0.5],[1,0.5]];portConstraint=eastwest;rotatable=0;whiteSpace=wrap;html=1;sketch=1;curveFitting=1;jiggle=2;fontFamily=Comic Sans MS;fontSize=14;" vertex="1" parent="KTKxGtAQiXLNz0Gxm8kv-57">
          <mxGeometry y="90" width="120" height="30" as="geometry" />
        </mxCell>
        <mxCell id="KTKxGtAQiXLNz0Gxm8kv-61" value="prix" style="text;strokeColor=none;fillColor=none;align=left;verticalAlign=middle;spacingLeft=4;spacingRight=4;overflow=hidden;points=[[0,0.5],[1,0.5]];portConstraint=eastwest;rotatable=0;whiteSpace=wrap;html=1;sketch=1;curveFitting=1;jiggle=2;fontFamily=Comic Sans MS;fontSize=14;" vertex="1" parent="KTKxGtAQiXLNz0Gxm8kv-57">
          <mxGeometry y="120" width="120" height="30" as="geometry" />
        </mxCell>
        <mxCell id="KTKxGtAQiXLNz0Gxm8kv-62" value="disponibilité" style="text;strokeColor=none;fillColor=none;align=left;verticalAlign=middle;spacingLeft=4;spacingRight=4;overflow=hidden;points=[[0,0.5],[1,0.5]];portConstraint=eastwest;rotatable=0;whiteSpace=wrap;html=1;sketch=1;curveFitting=1;jiggle=2;fontFamily=Comic Sans MS;fontSize=14;" vertex="1" parent="KTKxGtAQiXLNz0Gxm8kv-57">
          <mxGeometry y="150" width="120" height="30" as="geometry" />
        </mxCell>
        <mxCell id="KTKxGtAQiXLNz0Gxm8kv-67" value="CommandeProduit" style="swimlane;fontStyle=0;childLayout=stackLayout;horizontal=1;startSize=30;horizontalStack=0;resizeParent=1;resizeParentMax=0;resizeLast=0;collapsible=1;marginBottom=0;whiteSpace=wrap;html=1;sketch=1;curveFitting=1;jiggle=2;fontFamily=Comic Sans MS;fontSize=14;" vertex="1" parent="1">
          <mxGeometry x="420" y="440" width="120" height="150" as="geometry" />
        </mxCell>
        <mxCell id="KTKxGtAQiXLNz0Gxm8kv-68" value="id" style="text;strokeColor=none;fillColor=none;align=left;verticalAlign=middle;spacingLeft=4;spacingRight=4;overflow=hidden;points=[[0,0.5],[1,0.5]];portConstraint=eastwest;rotatable=0;whiteSpace=wrap;html=1;sketch=1;curveFitting=1;jiggle=2;fontFamily=Comic Sans MS;fontSize=14;" vertex="1" parent="KTKxGtAQiXLNz0Gxm8kv-67">
          <mxGeometry y="30" width="120" height="30" as="geometry" />
        </mxCell>
        <mxCell id="KTKxGtAQiXLNz0Gxm8kv-69" value="produit_id" style="text;strokeColor=none;fillColor=none;align=left;verticalAlign=middle;spacingLeft=4;spacingRight=4;overflow=hidden;points=[[0,0.5],[1,0.5]];portConstraint=eastwest;rotatable=0;whiteSpace=wrap;html=1;sketch=1;curveFitting=1;jiggle=2;fontFamily=Comic Sans MS;fontSize=14;" vertex="1" parent="KTKxGtAQiXLNz0Gxm8kv-67">
          <mxGeometry y="60" width="120" height="30" as="geometry" />
        </mxCell>
        <mxCell id="KTKxGtAQiXLNz0Gxm8kv-76" value="commande_id" style="text;strokeColor=none;fillColor=none;align=left;verticalAlign=middle;spacingLeft=4;spacingRight=4;overflow=hidden;points=[[0,0.5],[1,0.5]];portConstraint=eastwest;rotatable=0;whiteSpace=wrap;html=1;sketch=1;curveFitting=1;jiggle=2;fontFamily=Comic Sans MS;fontSize=14;" vertex="1" parent="KTKxGtAQiXLNz0Gxm8kv-67">
          <mxGeometry y="90" width="120" height="30" as="geometry" />
        </mxCell>
        <mxCell id="KTKxGtAQiXLNz0Gxm8kv-70" value="qte" style="text;strokeColor=none;fillColor=none;align=left;verticalAlign=middle;spacingLeft=4;spacingRight=4;overflow=hidden;points=[[0,0.5],[1,0.5]];portConstraint=eastwest;rotatable=0;whiteSpace=wrap;html=1;sketch=1;curveFitting=1;jiggle=2;fontFamily=Comic Sans MS;fontSize=14;" vertex="1" parent="KTKxGtAQiXLNz0Gxm8kv-67">
          <mxGeometry y="120" width="120" height="30" as="geometry" />
        </mxCell>
        <mxCell id="KTKxGtAQiXLNz0Gxm8kv-72" style="edgeStyle=orthogonalEdgeStyle;rounded=0;orthogonalLoop=1;jettySize=auto;html=1;entryX=0;entryY=0.5;entryDx=0;entryDy=0;sketch=1;curveFitting=1;jiggle=2;fontFamily=Comic Sans MS;fontSize=14;" edge="1" parent="1" source="KTKxGtAQiXLNz0Gxm8kv-6" target="KTKxGtAQiXLNz0Gxm8kv-38">
          <mxGeometry relative="1" as="geometry" />
        </mxCell>
        <mxCell id="KTKxGtAQiXLNz0Gxm8kv-73" style="edgeStyle=orthogonalEdgeStyle;rounded=0;orthogonalLoop=1;jettySize=auto;html=1;entryX=0;entryY=0.5;entryDx=0;entryDy=0;sketch=1;curveFitting=1;jiggle=2;fontFamily=Comic Sans MS;fontSize=14;" edge="1" parent="1" source="KTKxGtAQiXLNz0Gxm8kv-2" target="KTKxGtAQiXLNz0Gxm8kv-60">
          <mxGeometry relative="1" as="geometry" />
        </mxCell>
        <mxCell id="KTKxGtAQiXLNz0Gxm8kv-75" style="edgeStyle=orthogonalEdgeStyle;rounded=0;orthogonalLoop=1;jettySize=auto;html=1;exitX=1;exitY=0.5;exitDx=0;exitDy=0;entryX=0;entryY=0.5;entryDx=0;entryDy=0;sketch=1;curveFitting=1;jiggle=2;fontFamily=Comic Sans MS;fontSize=14;" edge="1" parent="1" source="KTKxGtAQiXLNz0Gxm8kv-58" target="KTKxGtAQiXLNz0Gxm8kv-69">
          <mxGeometry relative="1" as="geometry" />
        </mxCell>
        <mxCell id="KTKxGtAQiXLNz0Gxm8kv-77" style="edgeStyle=orthogonalEdgeStyle;rounded=0;orthogonalLoop=1;jettySize=auto;html=1;entryX=1;entryY=0.5;entryDx=0;entryDy=0;sketch=1;curveFitting=1;jiggle=2;fontFamily=Comic Sans MS;fontSize=14;" edge="1" parent="1" source="KTKxGtAQiXLNz0Gxm8kv-14" target="KTKxGtAQiXLNz0Gxm8kv-76">
          <mxGeometry relative="1" as="geometry">
            <Array as="points">
              <mxPoint x="590" y="545" />
              <mxPoint x="590" y="545" />
            </Array>
          </mxGeometry>
        </mxCell>
        <mxCell id="KTKxGtAQiXLNz0Gxm8kv-79" style="edgeStyle=orthogonalEdgeStyle;rounded=0;orthogonalLoop=1;jettySize=auto;html=1;entryX=1;entryY=0.5;entryDx=0;entryDy=0;sketch=1;curveFitting=1;jiggle=2;fontFamily=Comic Sans MS;fontSize=14;" edge="1" parent="1" source="KTKxGtAQiXLNz0Gxm8kv-49" target="KTKxGtAQiXLNz0Gxm8kv-15">
          <mxGeometry relative="1" as="geometry">
            <Array as="points">
              <mxPoint x="754" y="120" />
              <mxPoint x="754" y="575" />
            </Array>
          </mxGeometry>
        </mxCell>
        <mxCell id="KTKxGtAQiXLNz0Gxm8kv-80" style="edgeStyle=orthogonalEdgeStyle;rounded=0;orthogonalLoop=1;jettySize=auto;html=1;sketch=1;curveFitting=1;jiggle=2;fontFamily=Comic Sans MS;fontSize=14;" edge="1" parent="1" source="KTKxGtAQiXLNz0Gxm8kv-14" target="KTKxGtAQiXLNz0Gxm8kv-23">
          <mxGeometry relative="1" as="geometry">
            <Array as="points">
              <mxPoint x="577" y="560" />
              <mxPoint x="577" y="715" />
            </Array>
          </mxGeometry>
        </mxCell>
        <mxCell id="KTKxGtAQiXLNz0Gxm8kv-82" style="edgeStyle=orthogonalEdgeStyle;rounded=0;orthogonalLoop=1;jettySize=auto;html=1;entryX=0;entryY=0.5;entryDx=0;entryDy=0;sketch=1;curveFitting=1;jiggle=2;fontFamily=Comic Sans MS;fontSize=14;" edge="1" parent="1" source="KTKxGtAQiXLNz0Gxm8kv-34" target="KTKxGtAQiXLNz0Gxm8kv-59">
          <mxGeometry relative="1" as="geometry">
            <Array as="points">
              <mxPoint x="20" y="220" />
              <mxPoint x="20" y="330" />
              <mxPoint x="190" y="330" />
              <mxPoint x="190" y="495" />
            </Array>
          </mxGeometry>
        </mxCell>
        <mxCell id="KTKxGtAQiXLNz0Gxm8kv-83" style="edgeStyle=orthogonalEdgeStyle;rounded=0;orthogonalLoop=1;jettySize=auto;html=1;entryX=0;entryY=0.5;entryDx=0;entryDy=0;sketch=1;curveFitting=1;jiggle=2;fontFamily=Comic Sans MS;fontSize=14;" edge="1" parent="1" source="KTKxGtAQiXLNz0Gxm8kv-34" target="KTKxGtAQiXLNz0Gxm8kv-71">
          <mxGeometry relative="1" as="geometry">
            <Array as="points">
              <mxPoint x="210" y="210" />
              <mxPoint x="210" y="355" />
            </Array>
          </mxGeometry>
        </mxCell>
        <mxCell id="KTKxGtAQiXLNz0Gxm8kv-84" style="edgeStyle=orthogonalEdgeStyle;rounded=0;orthogonalLoop=1;jettySize=auto;html=1;exitX=1;exitY=0.5;exitDx=0;exitDy=0;entryX=0;entryY=0.5;entryDx=0;entryDy=0;sketch=1;curveFitting=1;jiggle=2;fontFamily=Comic Sans MS;fontSize=14;" edge="1" parent="1" source="KTKxGtAQiXLNz0Gxm8kv-53" target="KTKxGtAQiXLNz0Gxm8kv-55">
          <mxGeometry relative="1" as="geometry" />
        </mxCell>
        <mxCell id="KTKxGtAQiXLNz0Gxm8kv-85" style="edgeStyle=orthogonalEdgeStyle;rounded=0;orthogonalLoop=1;jettySize=auto;html=1;entryX=1;entryY=0.5;entryDx=0;entryDy=0;sketch=1;curveFitting=1;jiggle=2;fontFamily=Comic Sans MS;fontSize=14;" edge="1" parent="1" source="KTKxGtAQiXLNz0Gxm8kv-49" target="KTKxGtAQiXLNz0Gxm8kv-24">
          <mxGeometry relative="1" as="geometry">
            <Array as="points">
              <mxPoint x="780" y="110" />
              <mxPoint x="780" y="745" />
            </Array>
          </mxGeometry>
        </mxCell>
        <mxCell id="KTKxGtAQiXLNz0Gxm8kv-90" value="gestion de stock" style="ellipse;shape=cloud;whiteSpace=wrap;html=1;" vertex="1" parent="1">
          <mxGeometry x="-340" y="260" width="150" height="80" as="geometry" />
        </mxCell>
        <mxCell id="KTKxGtAQiXLNz0Gxm8kv-91" value="app/service separée pour les livraison" style="ellipse;shape=cloud;whiteSpace=wrap;html=1;" vertex="1" parent="1">
          <mxGeometry x="50" y="720" width="350" height="80" as="geometry" />
        </mxCell>
      </root>
    </mxGraphModel>
  </diagram>
</mxfile>
